<svg width="33" height="33" viewBox="0 0 33 33" fill="none" xmlns="http://www.w3.org/2000/svg">
<rect x="0.441406" width="32.4804" height="32.4804" rx="10" fill="#FF704B"/>
<g clip-path="url(#clip0_457_222)">
<path d="M26.6103 7.87285C25.7343 8.49077 24.7644 8.96339 23.7379 9.27249C23.1869 8.639 22.4547 8.19 21.6403 7.98621C20.8258 7.78243 19.9684 7.83369 19.1841 8.13306C18.3997 8.43244 17.7262 8.96548 17.2547 9.66011C16.7831 10.3547 16.5363 11.1774 16.5475 12.0169V12.9317C14.9399 12.9734 13.3469 12.6168 11.9104 11.8938C10.4739 11.1708 9.23858 10.1037 8.31434 8.78765C8.31434 8.78765 4.65514 17.0208 12.8883 20.68C11.0043 21.9589 8.75999 22.6001 6.48474 22.5096C14.7179 27.0836 24.7807 22.5096 24.7807 11.9894C24.7799 11.7346 24.7554 11.4804 24.7075 11.2302C25.6412 10.3094 26.3001 9.1469 26.6103 7.87285Z" stroke="white" stroke-width="1.01217" stroke-linecap="round" stroke-linejoin="round"/>
</g>
<defs>
<clipPath id="clip0_457_222">
<rect width="21.9552" height="21.9552" fill="white" transform="translate(5.56995 5.12848)"/>
</clipPath>
</defs>
</svg>
